<svg width="1182" height="1182" xmlns="http://www.w3.org/2000/svg" xmlns:xlink="http://www.w3.org/1999/xlink" xml:space="preserve" overflow="hidden"><defs><clipPath id="clip0"><rect x="330" y="330" width="1182" height="1182"/></clipPath></defs><g clip-path="url(#clip0)" transform="translate(-330 -330)"><path d="M482.171 606.811 482.171 1059.57 956.374 923.626 956.374 553.645Z" stroke="#000000" stroke-width="19.4821" stroke-linejoin="round" fill="#646464" fill-rule="evenodd" transform="matrix(1.00506 0 0 1 152.459 170.682)"/><path d="M482.171 1059.57 789.553 1331.53 1255.15 1124.73 956.374 923.626Z" stroke="#000000" stroke-width="19.4821" stroke-linejoin="round" fill="#646464" fill-rule="evenodd" transform="matrix(1.00506 0 0 1 152.459 170.682)"/><path d="M956.374 553.645 1255.15 712.626 1255.15 1124.73 956.374 923.626Z" stroke="#000000" stroke-width="19.4821" stroke-linejoin="round" fill="#646464" fill-rule="evenodd" transform="matrix(1.00506 0 0 1 152.459 170.682)"/><path d="M482.171 606.811 789.553 814.046 1255.15 712.626 956.374 553.645Z" stroke="#000000" stroke-width="19.4821" stroke-linejoin="round" fill="#646464" fill-rule="evenodd" transform="matrix(1.00506 0 0 1 152.459 170.682)"/><path d="M789.553 814.046 789.553 1331.53 1255.15 1124.73 1255.15 712.626Z" stroke="#000000" stroke-width="19.4821" stroke-linejoin="round" fill="#646464" fill-rule="evenodd" transform="matrix(1.00506 0 0 1 152.459 170.682)"/><path d="M482.171 606.811 789.553 814.046 789.553 1331.53 482.171 1059.57Z" stroke="#000000" stroke-width="19.4821" stroke-linejoin="round" fill="#646464" fill-rule="evenodd" transform="matrix(1.00506 0 0 1 152.459 170.682)"/><path d="M847.49 669.453 847.49 188.843" stroke="#000000" stroke-width="58.9511" stroke-linecap="round" fill="none" fill-rule="evenodd" transform="matrix(1.00506 0 0 1 152.459 170.682)"/><path d="M1026.3 983.631 1375.24 1219.18" stroke="#000000" stroke-width="58.9511" stroke-linecap="round" fill="#646464" fill-rule="evenodd" transform="matrix(1.00506 0 0 1 152.459 170.682)"/><path d="M154.104 1045.52 626.755 940.075" stroke="#000000" stroke-width="58.9511" stroke-linecap="round" fill="#646464" fill-rule="evenodd" transform="matrix(1.00506 0 0 1 152.459 170.682)"/><g><g><g><path d="M395.108 148.148C404.851 148.148 412.748 156.046 412.748 165.788L412.748 385.462C412.748 395.204 404.851 403.102 395.108 403.102L156.141 403.102C146.399 403.102 138.501 395.204 138.501 385.462L138.501 165.788C138.501 156.046 146.399 148.148 156.141 148.148Z" stroke="#FFFFEB" stroke-width="16.6677" fill="#FFFFEB" transform="matrix(1 0 0 1.00227 966.875 968.75)"/><path d="M385.014 340.512C385.014 335.535 383.195 331.228 379.559 327.592L327.592 275.625 379.559 223.658C383.195 220.022 385.014 215.715 385.014 210.738 385.014 205.57 383.195 201.168 379.559 197.531L353.719 171.691C350.082 168.055 345.68 166.236 340.512 166.236 335.535 166.236 331.229 168.055 327.592 171.691L275.625 223.658 223.658 171.691C220.022 168.055 215.715 166.236 210.738 166.236 205.57 166.236 201.168 168.055 197.531 171.691L171.691 197.531C168.055 201.168 166.236 205.57 166.236 210.738 166.236 215.715 168.055 220.022 171.691 223.658L223.658 275.625 171.691 327.592C168.055 331.228 166.236 335.535 166.236 340.512 166.236 345.68 168.055 350.082 171.691 353.719L197.531 379.559C201.168 383.195 205.57 385.014 210.738 385.014 215.715 385.014 220.022 383.195 223.658 379.559L275.625 327.592 327.592 379.559C331.229 383.195 335.535 385.014 340.512 385.014 345.68 385.014 350.082 383.195 353.719 379.559L379.559 353.719C383.195 350.082 385.014 345.68 385.014 340.512ZM496.125 275.625C496.125 315.629 486.268 352.522 466.553 386.306 446.838 420.089 420.089 446.838 386.306 466.553 352.522 486.268 315.629 496.125 275.625 496.125 235.621 496.125 198.728 486.268 164.944 466.553 131.161 446.838 104.412 420.089 84.6973 386.306 64.9824 352.522 55.125 315.629 55.125 275.625 55.125 235.621 64.9824 198.728 84.6973 164.944 104.412 131.161 131.161 104.412 164.944 84.6973 198.728 64.9824 235.621 55.125 275.625 55.125 315.629 55.125 352.522 64.9824 386.306 84.6973 420.089 104.412 446.838 131.161 466.553 164.944 486.268 198.728 496.125 235.621 496.125 275.625Z" fill="#A70006" transform="matrix(1 0 0 1.00227 966.875 968.75)"/></g></g></g></g></svg>